Patient4_TMGait_0pt7_01_right_45_EMG.mot
version=1
nRows=20
nColumns=33
inDegrees=no
endheader
time	1LAddLong	2LGlutMax	3LGlutMed	4LIliopsoas	5LSemiMemb	6LBicFemLong	7LRecFem	8LVastMed	9LVastLat	10LGasMed	11LTibAnt	12lTibPost	13LPeroneusLong	14LSol	15LExtDigLong	16LFlexDigLong	17RAddLong	18RGlutMax	19RGlutMed	20RIliopsoas	21RSemiMemb	22RBicFemLong	23RRecFem	24RVastMed	25RVastLat	26RGasMed	27RTibAnt	28RTibPost	29RPeroneusLong	30RSol	31RExtDigLong	32RFlexDigLong
52.43	0.037231	-0.00946	0.10071	0.007477	0.18341	-0.53421	0.1033	-0.014496	0.031891	-0.023651	-0.014191	0.063782	-0.028687	-0.17425	0.1091	0.001526	0.024109	-0.080261	0.54901	-0.024109	-0.12314	0.52689	-0.31296	0.076447	0.18921	0.007629	-0.041962	-0.004272	-0.029144	-0.1091	-0.00351	-0.003357
52.431	0.013428	0.001373	0.14297	0.003662	0.10208	-0.1561	0.055695	-0.00412	-0.033264	-0.061493	0.00824	0.066071	-0.011902	-0.16647	-0.056458	0.000153	0.023804	-0.10391	0.60486	-0.032196	-0.028992	0.72311	-0.24323	0.067596	0.14099	0.004425	0.12146	-0.000305	0.17563	0.048828	-0.005493	-0.001373
52.432	0.003967	0.12543	0.1326	0.004272	0.057983	0.061798	-0.025482	-0.009613	-0.14008	-0.058746	-0.051422	0.062561	0.012817	-0.11475	0.027161	-0.005493	0.01236	-0.061493	0.65903	-0.085602	0.039368	0.68817	-0.24521	0.025787	0.11871	0.005341	-0.048828	-0.005646	0.076141	0.29907	-0.005035	-0.00412
52.433	-0.001984	0.14099	0.10284	0.01358	0.025787	0.18051	-0.12329	-0.018616	-0.16571	-0.058441	-0.08606	0.068512	0.033569	-0.067749	0.040588	0.003967	0.015717	-0.085297	0.29663	-0.017853	0.0383	0.49606	-0.27741	0.015869	0.11078	0.000458	0.11673	-0.005188	-0.54871	0.48889	-0.005341	-0.007629
52.434	-0.014191	0.15366	0.1265	0.007477	-0.007019	0.21973	-0.15747	-0.021973	-0.26138	-0.052338	-0.17258	0.061188	0.041504	-0.044708	0.048981	0.009155	0.042267	-0.11261	0.078888	0.028229	0.032043	0.36087	-0.22568	-0.023956	0.0737	-0.005188	-0.056763	-0.011444	0.10849	0.45975	-0.002747	-0.003357
52.435	0.002594	0.22446	0.089111	-0.001068	-0.029144	0.17883	-0.18448	-0.017853	-0.38055	-0.041046	-0.05661	0.054932	0.061951	-0.03952	0.08194	-0.00946	0.05722	-0.097809	0.3157	-0.016479	-0.002594	0.18601	-0.19699	-0.036621	0.083923	-0.005798	0.15381	-0.009308	0.25574	0.36301	-0.000458	0
52.436	-0.003052	0.24933	0.004578	-0.014038	-0.016174	0.16159	-0.16281	-0.019989	-0.47882	-0.011902	-0.015564	0.063324	0.059357	-0.050354	0.043182	0.007019	0.035553	-0.08194	0.49942	0.009766	-0.02594	-0.023499	-0.27634	-0.016785	0.090027	-0.003815	0.29541	-0.001984	0.1033	0.29923	-0.000305	-0.010071
52.437	-0.019989	0.28946	-0.081024	-0.006104	-0.007629	0.14587	-0.15564	-0.016479	-0.48096	-0.003967	-0.066528	0.048676	0.072021	-0.085754	-0.0354	0.001068	0.011902	-0.070343	0.32486	0.002747	-0.086365	-0.048523	-0.28519	-0.046387	0.084076	0.002747	-0.80887	-0.008087	0.085754	0.1973	-0.002289	-0.01358
52.438	-0.03418	0.3035	-0.087585	0.009918	0.008698	0.16693	-0.060272	-0.009613	-0.38025	-0.02594	-0.079346	0.038605	0.076904	-0.037384	-0.007935	0.002899	-0.003967	-0.063629	-0.32822	-0.011444	-0.22156	0.053406	-0.29877	-0.088348	0.059052	0.005188	-1.1694	-0.005646	0.21378	0.13748	-0.001526	-0.011139
52.439	-0.04715	0.28717	-0.095215	-0.003052	0.080109	0.030975	-0.10788	0.00885	-0.40009	-0.019531	-0.10651	0.034332	0.065002	-0.066223	0.037231	0.00885	0.01236	-0.084381	-0.021057	-0.005493	-0.31174	0.2681	-0.31845	-0.065002	0.064392	0.023041	-0.88715	-0.004578	0.15579	0.10208	-0.004883	-0.002289
52.44	-0.048065	0.20996	-0.13718	-0.007629	0.073853	-0.13901	-0.2095	-0.003204	-0.47165	-0.032959	-0.10376	0.031433	0.083771	-0.048065	0.045776	0.007935	0.022736	-0.074768	0.53513	0.021057	-0.43503	0.50491	-0.3215	-0.11108	0.06424	0.01236	-0.50919	-0.002594	0.092316	0.063782	-0.00412	-0.012054
52.441	-0.034943	0.21271	-0.11093	0.008392	0.015869	-0.026245	-0.32059	-0.015564	-0.46921	-0.032043	-0.055084	0.021515	0.060425	-0.011292	0.045319	0.001678	0.023804	-0.080109	0.70801	0.050964	-0.39291	0.47882	-0.31464	-0.11597	0.056458	0.009003	-0.18631	-0.006714	-0.16953	0.031128	-0.001526	-0.012054
52.442	-0.036469	0.15243	-0.11185	-0.001984	-0.031433	0.009155	-0.34958	-0.018311	-0.34256	-0.034943	0.033722	0.018005	0.029449	-0.006561	0.053253	0.005035	-0.038452	-0.12116	0.32166	0.051575	-0.10132	0.35355	-0.32989	-0.009003	0.071564	0.023651	0.057983	0.000305	-0.46692	0.04303	-0.006256	-0.007782
52.443	-0.019226	0.15228	-0.11169	0.001984	-0.075531	0.092468	-0.31143	-0.013733	-0.19028	-0.065613	0.16663	0.01297	-0.013885	-0.024567	0.071716	0.002289	-0.043182	-0.15701	0.31097	0.053558	0.27741	0.14465	-0.27634	-0.040436	0.054016	0.026245	0.2385	-0.002289	-0.63263	0.067902	-0.00351	-0.001373
52.444	-0.032501	0.21362	-0.10254	0.016174	-0.10086	0.1535	-0.24765	-0.002441	-0.17914	-0.016785	0.24826	-0.001984	-0.023804	-0.03067	0.045624	0.002289	-0.01297	-0.11948	0.47684	0.056458	0.34424	0.11627	-0.25146	-0.094604	0.050507	0.023651	0.19913	-0.003052	-0.56961	0.080719	0.001373	-0.014648
52.445	-0.023041	0.28595	-0.056305	-0.006561	-0.12344	0.1236	-0.33981	-0.002136	-0.12207	-0.033417	0.12894	0.00061	0.041962	-0.02121	0.001221	0.009308	-0.001984	-0.14526	0.57068	0.063629	0.32608	0.079956	-0.2829	-0.091095	0.042114	0.023346	0.037231	-0.005035	-0.2034	0.063171	-0.002747	-0.006866
52.446	0.025024	0.24567	-0.10437	0.001068	-0.099792	-0.10574	-0.3978	-0.014801	0.000763	-0.042877	0.046234	-0.005035	0.069275	0.002441	0.094147	0.011597	-0.014648	-0.027618	0.17319	0.071564	0.05722	0.093231	-0.39322	-0.029602	0.064697	0.019836	-0.06485	-0.001984	0.29297	-0.028534	0.007935	-0.003357
52.447	0.058746	0.2243	0.017548	0.004578	0.022125	-0.43472	-0.39261	-0.020142	0.04303	-0.047607	-0.020905	-0.009155	0.09613	-0.00824	-0.036926	0.010376	-0.007782	-0.044861	0.15045	0.050659	0.29175	-0.096893	-0.36575	-0.020752	0.084839	-0.000305	0.005646	-0.002594	0.49759	-0.059509	0.000916	-0.009003
52.448	0.080414	0.18402	0.17105	0.012817	0.21912	-0.58594	-0.34454	-0.003815	0.032501	-0.041962	-0.048828	-0.020752	0.093536	0.024872	-0.099792	0.012207	0.014343	-0.002441	0.11917	0.068512	0.23407	-0.10895	-0.34683	-0.005188	0.074463	-0.017548	0.084534	-0.00351	0.54108	0.010223	-0.002136	-0.000153
52.449	0.077667	0.0914	0.15656	0.015564	0.30289	-0.12756	-0.28702	0.022583	0.000458	-0.031738	-0.03479	-0.032654	0.053406	0.12589	-0.112	0.018311	0.049438	0.01297	0.071106	0.11459	0.1416	-0.043793	-0.34439	-0.057373	0.061798	-0.043945	0.20905	-0.011444	0.20554	0.094299	-0.002441	-0.014343
